<svg width="180" height="48" viewBox="0 0 180 48" fill="none" xmlns="http://www.w3.org/2000/svg">
  <rect width="180" height="48" rx="8" fill="#0B0B14"/>
  <path d="M18 32L18 16H24.5C29 16 32 18.5 32 23C32 27.5 28.8 32 24 32H18Z" fill="white"/>
  <path d="M24.2 20.4H22.6V27.6H24.2C26.4 27.6 27.7 26.1 27.7 24C27.7 22 26.4 20.4 24.2 20.4Z" fill="#D32323"/>
  <path d="M43.9 16.1H49.7L55 27.5L60.3 16.1H66.1V32H61.9V21L56.4 32H53.6L48.1 21V32H43.9V16.1Z" fill="white"/>
  <path d="M73 16H77.6L86.7 27.9V16H90.8V32H86.1L77.1 20.3V32H73V16Z" fill="white"/>
  <path d="M97.3 16H102.2L107.1 23.4L112 16H116.8V32H112.7V21.5L107.1 29.2H107L101.4 21.5V32H97.3V16Z" fill="white"/>
  <path d="M125.4 16H141.6V19.6H129.6V22.4H140.6V25.9H129.6V28.4H141.8V32H125.4V16Z" fill="white"/>
  <path d="M154.8 16H160.5L166 23.6L171.5 16H177.2L169.2 26.9V32H162.9V27L154.8 16Z" fill="#D32323"/>
  <circle cx="21" cy="24" r="2" fill="#0B0B14"/>
</svg>
